<?xml version="1.0" encoding="UTF-8" standalone="no"?>
<!-- Generator: Adobe Illustrator 16.0.3, SVG Export Plug-In . SVG Version: 6.00 Build 0)  -->
<!DOCTYPE svg  PUBLIC '-//W3C//DTD SVG 1.1//EN'  'http://www.w3.org/Graphics/SVG/1.1/DTD/svg11.dtd'>
<svg id="Ebene_1" xmlns="http://www.w3.org/2000/svg" xml:space="preserve" height="50px" viewBox="0 -2.5 50 50" width="50px" version="1.1" y="0px" x="0px" xmlns:xlink="http://www.w3.org/1999/xlink" enable-background="new 0 -2.5 50 50">
<g id="Ebene_1_2_">
	<g transform="translate(0 256) scale(0.1 -0.1)" fill="#fff">
		<path d="m404.43 2536.6c-6.426-2.08-22.285-15.879-25.879-22.676-1.523-3.027-4.922-2.461-48.008 7.93-25.332 6.24-46.309 10.957-46.484 10.781-0.391-0.195-8.32-22.5-17.773-49.521-9.443-26.826-18.32-51.592-19.648-54.805-2.461-5.85-2.461-5.85-20.41-6.982-37.227-2.461-74.277-12.48-106.58-28.926-15.313-7.744-19.844-9.258-21.357-7.363-1.133 1.318-6.426 4.346-11.719 6.611-12.471 5.293-34.209 4.727-45.928-1.318-10.195-5.293-20.781-16.25-25.879-26.836-6.621-13.232-6.055-33.452 0.938-47.808 3.027-6.055 8.32-13.223 11.914-16.25l6.611-5.488 0.381-19.648c0.557-21.738 4.141-34.023 14.922-52.539 7.754-13.223 30.996-36.855 45.918-46.875 45.547-30.605 106.02-46.094 169.14-43.457 68.984 3.027 130.59 27.031 168.2 65.762 23.418 24.004 34.395 48.184 34.961 77.676 0.371 18.145 0.566 18.145 6.992 23.809 3.574 3.223 8.867 10.391 12.09 15.879 4.727 8.691 5.469 11.895 5.469 25.137 0 17.944-4.141 28.53-15.117 39.673-18.32 18.33-48.945 21.729-69.727 7.559l-6.797-4.531-9.258 5.479c-29.492 17.197-72.207 29.863-113.03 33.457-7.559 0.566-13.789 1.895-13.789 2.637 0 1.709 29.668 86.934 30.625 87.695 0.371 0.371 18.125-3.594 39.863-8.887 32.129-7.744 39.121-10.02 39.121-12.666 0-7.744 6.426-21.348 13.418-28.35 27.598-27.393 74.082-10.195 76.914 28.35 2.48 32.6-28.52 56.4-60.08 46.4zm30.06-19.9c12.656-9.453 16.426-23.057 9.824-35.908-4.355-8.506-15.117-15.498-23.809-15.498-12.48 0-26.094 11.338-28.535 23.623-4.15 22.9 24.19 41.6 42.53 27.8zm-124.16-117.5c116.97-24.756 172.91-107.33 120.57-178.01-24.199-32.695-73.32-58.77-129.45-68.789-22.871-3.965-72.188-4.531-94.492-0.938-37.793 5.859-73.135 18.887-99.404 36.465-53.096 35.527-70.303 87.871-43.838 133.42l4.727 7.949h54.398v-4.551c0-3.594 1.133-4.727 5.293-5.293 3.975-0.371 5.293-1.699 5.674-5.664 0.566-4.531 1.514-5.293 6.24-5.293 4.912 0 5.479-0.566 5.479-5.664s0.566-5.664 5.674-5.664c4.717 0 5.664-0.762 5.664-4.727v-4.727h75.586v4.727c0 3.965 0.957 4.727 5.674 4.727 5.107 0 5.674 0.566 5.674 5.664s0.566 5.664 5.664 5.664c5.664 0 5.664 0.195 5.664 10.391v10.41h6.621c5.664 0 6.621-0.586 6.621-4.551 0-3.594 1.133-4.727 5.293-5.293 3.965-0.371 5.273-1.699 5.664-5.664 0.566-4.531 1.504-5.293 6.23-5.293 4.922 0 5.488-0.566 5.488-5.664v-5.664l38.164 0.371 38.359 0.566v4.727c0 3.77 1.133 4.902 5.293 5.293 4.355 0.566 5.117 1.504 5.117 6.23 0 4.922 0.566 5.488 5.664 5.488 5.488 0 5.664 0.176 5.664 9.453v9.434h-156.24l-156.46 0.195 12.461 11.704c27.227 25.898 73.144 45.361 123.59 52.158 21.74 3.2 76.35 1.1 97.72-3.4zm-231.7-23.6l6.807-2.832-16.064-17.012c-11.523-11.909-17.949-20.776-22.48-30.034-3.408-7.188-6.816-13.242-7.568-13.242-2.266-0.176-10.576 15.508-11.904 22.676-4.914 26.7 25.896 50.8 51.209 40.3zm374-0.8c15.293-6.807 25.313-24.385 22.676-39.692-1.133-7.363-8.32-21.152-11.348-22.285-0.938-0.195-5.293 6.035-9.258 13.984-5.488 10.391-11.914 19.082-23.047 30.034l-15.313 15.684 6.797 2.842c9.26 3.9 20.41 3.7 29.49-0.5zm-297.65-49.3c0-5.293 0.566-5.664 6.621-5.664 6.045 0 6.611 0.371 6.611 5.859 0 5.098 0.566 5.664 5.293 5.098 3.965-0.391 5.283-1.699 5.674-5.664 0.566-4.551 1.504-5.293 6.23-5.293 4.912 0 5.479-0.566 5.479-5.684 0-5.098 0.566-5.664 5.674-5.664 5.098 0 5.664-0.566 5.664-5.664 0-5.293-0.566-5.664-6.611-5.664-5.859 0-6.611 0.566-6.611 4.727 0 3.965-0.947 4.707-5.674 4.707-4.717 0-5.674-0.742-5.674-4.707 0-4.16-0.752-4.727-6.426-4.727-5.664 0-6.23 0.371-5.293 4.727 0.762 4.141 0.195 4.707-5.098 4.707s-5.859 0.566-5.859 5.684c0 5.098-0.566 5.664-5.664 5.664-4.922 0-5.664 0.762-5.664 5.293 0 6.602 1.133 7.93 6.992 7.93 3.58 0.2 4.34-0.8 4.34-5.5zm145.13-0.4c0.566-4.355 1.523-5.293 6.055-5.293s5.469 0.938 6.035 5.293c0.566 4.336 1.523 5.098 6.25 5.098s5.664-0.762 6.23-5.098c0.566-4.16 1.699-5.293 5.293-5.293 3.965 0 4.531-0.957 4.531-6.621 0-6.055-0.371-6.621-5.664-6.621-5.098 0-5.664 0.566-5.664 5.684 0 5.098-0.566 5.664-5.488 5.664-4.727 0-5.664-0.762-6.23-5.098-0.391-4.355-1.523-5.488-6.621-5.859-5.859-0.566-6.23-0.195-6.23 5.098s-0.566 5.859-5.664 5.859c-4.922 0-5.684 0.762-5.684 5.293 0 6.797 1.523 8.32 7.559 7.559 3.58-0.5 4.91-2 5.28-5.8z"/>
		<path d="m173.12 2222.9c-2.266-1.699-3.213-4.336-2.637-7.93 0.742-7.559 16.621-18.34 36.27-24.961 13.613-4.531 18.34-5.098 42.715-5.098 20.781 0 30.43 0.762 39.688 3.398 23.809 6.621 45.352 19.844 45.352 27.793 0 1.875-2.07 4.902-4.727 6.602-4.531 3.027-5.098 2.832-14.727-3.77-33.828-23.242-94.688-23.242-127.19-0.195-10.57 7.6-10.2 7.4-14.73 4.2z"/>
	</g>
</g>
</svg>
