<?xml version="1.0" encoding="utf-8"?>
<!-- Generator: Adobe Illustrator 16.0.3, SVG Export Plug-In . SVG Version: 6.00 Build 0)  -->
<!DOCTYPE svg PUBLIC "-//W3C//DTD SVG 1.1//EN" "http://www.w3.org/Graphics/SVG/1.1/DTD/svg11.dtd">
<svg version="1.1" xmlns="http://www.w3.org/2000/svg" xmlns:xlink="http://www.w3.org/1999/xlink" x="0px" y="0px" width="120px"
	 height="45px" viewBox="78 105.5 120 45" enable-background="new 78 105.5 120 45" xml:space="preserve">
<g id="Ebene_2" display="none">
	<rect x="36.5" y="75" display="inline" fill="#C42020" width="162.5" height="83.667"/>
</g>
<g id="Ebene_1">
	<g transform="translate(0.000000,256.000000) scale(0.100000,-0.100000)">
		<path fill="#FFFFFF" d="M1174.321,1491.929c-6.426-2.075-22.295-15.874-25.889-22.676c-1.514-3.022-4.912-2.456-47.998,7.935
			c-25.332,6.24-46.309,10.962-46.494,10.776c-0.381-0.19-8.311-22.49-17.764-49.517c-9.448-26.831-18.33-51.592-19.653-54.805
			c-2.456-5.854-2.456-5.854-20.41-6.987c-37.231-2.461-74.272-12.476-106.587-28.916c-15.308-7.749-19.844-9.263-21.353-7.373
			c-1.133,1.323-6.426,4.351-11.719,6.616c-12.471,5.293-34.204,4.727-45.923-1.323c-10.205-5.293-20.786-16.25-25.889-26.836
			c-6.616-13.228-6.045-33.447,0.947-47.808c3.022-6.055,8.315-13.223,11.904-16.25l6.616-5.488l0.376-19.648
			c0.566-21.738,4.155-34.023,14.932-52.539c7.744-13.223,30.991-36.855,45.918-46.875c45.547-30.605,106.021-46.094,169.141-43.457
			c68.975,3.027,130.586,27.031,168.193,65.762c23.428,24.004,34.395,48.184,34.961,77.676c0.371,18.145,0.566,18.145,6.992,23.809
			c3.584,3.223,8.877,10.391,12.09,15.879c4.727,8.687,5.479,11.899,5.479,25.132c0,17.949-4.15,28.535-15.117,39.683
			c-18.33,18.335-48.945,21.733-69.736,7.559l-6.797-4.531l-9.258,5.479c-29.482,17.197-72.197,29.858-113.018,33.452
			c-7.559,0.566-13.789,1.89-13.789,2.642c0,1.704,29.668,86.933,30.615,87.69c0.381,0.376,18.135-3.594,39.873-8.887
			c32.129-7.744,39.121-10.015,39.121-12.661c0-7.744,6.426-21.352,13.418-28.345c27.588-27.402,74.072-10.205,76.914,28.345
			C1236.87,1478.135,1205.884,1501.948,1174.321,1491.929z M1204.37,1472.09c12.656-9.453,16.436-23.057,9.824-35.908
			c-4.346-8.506-15.117-15.498-23.809-15.498c-12.471,0-26.084,11.338-28.535,23.623
			C1157.69,1467.173,1186.04,1485.884,1204.37,1472.09z M1080.21,1354.541c116.973-24.756,172.92-107.334,120.566-178.018
			c-24.189-32.695-73.32-58.77-129.453-68.789c-22.861-3.965-72.188-4.531-94.487-0.938c-37.793,5.859-73.135,18.887-99.404,36.465
			c-53.101,35.527-70.298,87.871-43.843,133.423l4.727,7.939h27.212h27.212v-4.541c0-3.594,1.133-4.727,5.293-5.298
			c3.97-0.371,5.293-1.699,5.669-5.664c0.566-4.531,1.514-5.293,6.235-5.293c4.917,0,5.483-0.566,5.483-5.664
			s0.566-5.664,5.669-5.664c4.722,0,5.669-0.762,5.669-4.727v-4.727h37.793h37.798v4.727c0,3.965,0.947,4.727,5.669,4.727
			c5.103,0,5.669,0.566,5.669,5.664s0.566,5.664,5.669,5.664c5.669,0,5.669,0.195,5.669,10.391v10.405h6.621
			c5.664,0,6.611-0.576,6.611-4.541c0-3.594,1.133-4.727,5.293-5.298c3.965-0.371,5.283-1.699,5.664-5.664
			c0.566-4.531,1.514-5.293,6.24-5.293c4.912,0,5.479-0.566,5.479-5.664v-5.664l38.174,0.371l38.359,0.566v4.727
			c0,3.77,1.133,4.902,5.293,5.293c4.346,0.566,5.107,1.504,5.107,6.23c0,4.922,0.566,5.483,5.664,5.483
			c5.488,0,5.674,0.186,5.674,9.453v9.443h-156.289l-156.475,0.19l12.471,11.714c27.217,25.894,73.135,45.356,123.594,52.158
			C1004.238,1361.157,1058.852,1359.077,1080.21,1354.541z M848.52,1330.918l6.802-2.832l-16.064-17.012
			c-11.528-11.904-17.949-20.786-22.485-30.044c-3.403-7.183-6.807-13.237-7.563-13.237c-2.266-0.176-10.581,15.503-11.904,22.686
			C792.393,1317.314,823.198,1341.504,848.52,1330.918z M1222.515,1330.166c15.303-6.807,25.322-24.38,22.676-39.688
			c-1.133-7.368-8.32-21.162-11.338-22.295c-0.947-0.195-5.293,6.035-9.268,13.979c-5.479,10.396-11.904,19.087-23.047,30.049
			l-15.313,15.684l6.807,2.837C1202.29,1334.512,1213.442,1334.321,1222.515,1330.166z M924.868,1280.835
			c0-5.283,0.566-5.664,6.611-5.664c6.05,0,6.616,0.381,6.616,5.859c0,5.103,0.566,5.669,5.293,5.103
			c3.965-0.381,5.288-1.704,5.669-5.669c0.566-4.541,1.509-5.293,6.235-5.293c4.912,0,5.479-0.562,5.479-5.679
			c0-5.098,0.566-5.664,5.669-5.664c5.107,0,5.674-0.566,5.674-5.664c0-5.293-0.566-5.664-6.616-5.664
			c-5.859,0-6.616,0.566-6.616,4.727c0,3.965-0.942,4.707-5.669,4.707c-4.722,0-5.669-0.742-5.669-4.707
			c0-4.16-0.757-4.727-6.426-4.727s-6.235,0.371-5.293,4.727c0.757,4.141,0.19,4.707-5.098,4.707c-5.293,0-5.859,0.566-5.859,5.684
			c0,5.098-0.566,5.664-5.669,5.664c-4.917,0-5.669,0.762-5.669,5.288c0,6.616,1.133,7.939,6.992,7.939
			C924.111,1286.509,924.868,1285.566,924.868,1280.835z M1070.005,1280.464c0.566-4.346,1.514-5.293,6.045-5.293
			c4.541,0,5.479,0.947,6.045,5.293s1.514,5.103,6.24,5.103s5.674-0.757,6.24-5.103c0.566-4.16,1.699-5.293,5.283-5.293
			c3.975,0,4.541-0.952,4.541-6.616c0-6.055-0.381-6.621-5.674-6.621c-5.098,0-5.664,0.566-5.664,5.684
			c0,5.098-0.566,5.664-5.488,5.664c-4.717,0-5.664-0.762-6.23-5.098c-0.381-4.355-1.514-5.488-6.611-5.859
			c-5.859-0.566-6.24-0.195-6.24,5.098s-0.566,5.859-5.664,5.859c-4.922,0-5.674,0.762-5.674,5.288c0,6.807,1.514,8.32,7.559,7.563
			C1068.306,1285.752,1069.624,1284.243,1070.005,1280.464z"/>
		<path fill="#FFFFFF" d="M943.008,1178.223c-2.266-1.699-3.213-4.336-2.642-7.93c0.752-7.559,16.626-18.34,36.279-24.961
			c13.608-4.531,18.335-5.098,42.71-5.098c20.786,0,30.425,0.762,39.683,3.398c23.818,6.621,45.361,19.844,45.361,27.793
			c0,1.875-2.08,4.902-4.727,6.602c-4.531,3.027-5.098,2.832-14.736-3.77c-33.828-23.242-94.683-23.242-127.188-0.195
			C947.168,1181.621,947.544,1181.445,943.008,1178.223z"/>
	</g>
	<g>
		<path fill="#FFFFFF" d="M128.973,134.461v-1.292l1.672-0.287v-11.761l-1.672-0.287v-1.302h1.672h2.02h1.672v1.302l-1.672,0.287
			v11.761h5.188l0.153-1.712h1.723v3.291H128.973z"/>
		<path fill="#FFFFFF" d="M141.257,120.833v-1.302h5.362v1.302l-1.671,0.287v11.761l1.671,0.287v1.292h-5.362v-1.292l1.671-0.287
			v-11.761L141.257,120.833z"/>
		<path fill="#FFFFFF" d="M162.677,119.531v1.302l-1.671,0.287v13.34h-2.021l-7.178-11.525l-0.061,0.021v9.926l1.671,0.287v1.292
			h-5.363v-1.292l1.672-0.287v-11.761l-1.672-0.287v-1.302h1.672h2.021l7.178,11.516l0.061-0.021v-9.905l-1.671-0.287v-1.302h3.691
			H162.677z"/>
		<path fill="#FFFFFF" d="M164.052,133.169l1.671-0.287v-11.761l-1.671-0.287v-1.302h5.362v1.302l-1.671,0.287v5.014h1.548
			l4.173-5.158l-1.117-0.144v-1.302h4.737v1.302l-1.405,0.256l-4.563,5.66l4.983,6.162l1.405,0.257v1.292h-4.902v-1.292l1.139-0.144
			l-4.256-5.301h-1.742v5.158l1.671,0.287v1.292h-5.362V133.169z"/>
		<path fill="#FFFFFF" d="M178.93,120.833v-1.302h5.362v1.302l-1.671,0.287v11.761l1.671,0.287v1.292h-5.362v-1.292l1.671-0.287
			v-11.761L178.93,120.833z"/>
		<path fill="#FFFFFF" d="M197.787,119.531v3.302h-1.723l-0.154-1.712h-3.313v11.761l1.672,0.287v1.292h-5.363v-1.292l1.672-0.287
			v-11.761h-3.322l-0.144,1.712h-1.733v-3.302H197.787z"/>
	</g>
</g>
</svg>
